<?xml version="1.0" encoding="utf-8"?>
<!-- Generator: Adobe Illustrator 26.0.1, SVG Export Plug-In . SVG Version: 6.00 Build 0)  -->
<svg version="1.1" id="Ebene_1" xmlns="http://www.w3.org/2000/svg" xmlns:xlink="http://www.w3.org/1999/xlink" x="0px" y="0px"
	 viewBox="0 0 141.7 37.1" style="enable-background:new 0 0 141.7 37.1;" xml:space="preserve">
<g>
	<path d="M0.7,0.3h9.9c9.4,0,14.5,5.8,14.5,13.9S20,28,10.6,28H0.7V0.3z M10.2,23.5c7.3,0,9.9-4,9.9-9.3c0-5.4-2.6-9.4-9.9-9.4H5.6
		v18.7H10.2z"/>
	<path d="M28.3,2.8c0-1.6,1.3-2.8,2.9-2.8C32.7,0,34,1.2,34,2.8s-1.3,2.8-2.8,2.8C29.6,5.6,28.3,4.4,28.3,2.8z M28.7,8h4.8v14
		c0,1.5,0.3,2.1,1.4,2.1c0.3,0,0.7,0,0.8-0.1v4c-0.4,0.2-1.2,0.3-2.4,0.3c-2.5,0-4.6-1.1-4.6-5.1C28.7,23.2,28.7,8,28.7,8z"/>
	<path d="M36.7,8h4.9l5.7,13.6L53,8h4.9l-8.6,20h-4L36.7,8z"/>
	<path d="M60.8,2.8c0-1.6,1.3-2.8,2.9-2.8c1.5,0,2.8,1.2,2.8,2.8s-1.3,2.8-2.8,2.8C62.1,5.6,60.8,4.4,60.8,2.8z M61.3,8h4.8v14
		c0,1.5,0.3,2.1,1.4,2.1c0.3,0,0.7,0,0.8-0.1v4c-0.4,0.2-1.2,0.3-2.4,0.3c-2.5,0-4.6-1.1-4.6-5.1C61.3,23.2,61.3,8,61.3,8z"/>
	<path d="M80.1,7.5c3.4,0,5.7,1.5,6.4,3.3V0.3h4.8v21.6c0,1.7,0.4,2.3,1.5,2.3c0.3,0,0.7,0,1-0.1v3.8c-0.6,0.2-1.5,0.3-2.3,0.3
		c-0.9,0-1.9-0.1-2.8-0.6c-0.6-0.4-1.3-1.2-1.6-2.4c-1.2,1.7-3.3,3.1-6.9,3.1c-5.6,0-10-4.5-10-10.5C70.1,12.1,74.5,7.5,80.1,7.5z
		 M80.7,24.1c3.5,0,6.1-2.6,6.1-6.1s-2.7-6.1-6.1-6.1s-5.9,2.6-5.9,6.1C74.8,21.5,77.4,24.1,80.7,24.1z"/>
	<path d="M105.8,7.5c3.4,0,5.7,1.5,6.4,3.3V8h4.8v14c0,1.7,0.4,2.3,1.5,2.3c0.3,0,0.7,0,1-0.1V28c-0.6,0.2-1.5,0.3-2.3,0.3
		c-0.9,0-1.9-0.1-2.8-0.6c-0.6-0.4-1.3-1.2-1.6-2.4c-1.2,1.7-3.3,3.1-6.9,3.1c-5.6,0-10-4.5-10-10.5C95.8,12.1,100.2,7.5,105.8,7.5z
		 M106.4,24.1c3.5,0,6.1-2.6,6.1-6.1s-2.7-6.1-6.1-6.1s-5.9,2.6-5.9,6.1S103.1,24.1,106.4,24.1z"/>
	<path d="M123.5,12.3H121V8h2.5V0.3h4.8V8h4.4v4.3h-4.4v8.9c0,2.2,0.8,3,2.5,3c0.5,0,1.1,0,1.7-0.2v4.2c-0.7,0.2-1.5,0.2-2.5,0.2
		c-2.7,0-6.5-0.8-6.5-6.8V12.3z"/>
</g>
<path d="M136.1,34.3c0-1.6,1.3-2.8,2.9-2.8c1.5,0,2.8,1.2,2.8,2.8s-1.3,2.8-2.8,2.8C137.4,37.1,136.1,35.9,136.1,34.3z"/>
<path d="M1.3,35.7c8.2,0,16.3,0,24.5,0c17.1,0,34.2,0,51.4,0c15,0,30,0,45,0c3.4,0,6.7,0,10.1,0c1.8,0,1.8-2.7,0-2.7
	c-8.2,0-16.3,0-24.5,0c-17.1,0-34.2,0-51.4,0c-15,0-30,0-45,0C8,33,4.7,33,1.3,33C-0.4,33-0.4,35.7,1.3,35.7L1.3,35.7z"/>
</svg>
